<svg width="30" height="26" viewBox="0 0 30 26" fill="none" xmlns="http://www.w3.org/2000/svg">
<path fill-rule="evenodd" clip-rule="evenodd" d="M23.0614 22.5803C23.0614 22.5803 24.7434 18.3703 27.2664 12.0543C27.5674 11.2803 27.9404 10.4093 28.2194 9.6253C28.2884 9.3473 28.2044 8.9563 27.9784 8.7223C27.8674 8.6013 27.7284 8.5123 27.5774 8.4693C27.4994 8.4483 27.4254 8.4393 27.3374 8.4373L26.9734 8.4393C25.0254 8.4463 22.9704 8.4543 20.8454 8.4623C16.5954 8.4793 12.0614 8.4973 7.52742 8.5143C6.39442 8.5183 5.26042 8.5223 4.13142 8.5273L3.28642 8.5303C3.01642 8.5313 2.65942 8.5223 2.61242 8.5723C2.30042 8.6663 2.06342 9.0203 2.05842 9.3753C2.03742 9.6483 2.33342 10.2823 2.48742 10.7793C2.67142 11.3003 2.85342 11.8193 3.03542 12.3353C3.39842 13.3663 3.75742 14.3853 4.11042 15.3883C4.81642 17.3923 5.49942 19.3303 6.14542 21.1673C6.32542 21.7073 6.39542 21.8923 6.64742 22.0383C6.76842 22.1053 6.86742 22.1323 7.02542 22.1303C7.25842 22.1293 7.48942 22.1283 7.71842 22.1273C8.63542 22.1243 9.52042 22.1213 10.3704 22.1173C17.1714 22.0913 21.7054 22.0743 21.7054 22.0743V23.3573C21.7054 23.3573 17.1714 23.3403 10.3704 23.3133C9.52042 23.3103 8.63542 23.3073 7.71842 23.3033C7.48942 23.3023 7.25842 23.3013 7.02542 23.3003C6.71842 23.3073 6.34342 23.2203 6.05742 23.0423C5.76242 22.8673 5.51742 22.6133 5.35442 22.3163C5.17342 21.9653 5.15042 21.7883 5.05642 21.5463C4.42342 19.7043 3.75642 17.7613 3.06542 15.7513C2.72042 14.7463 2.36942 13.7243 2.01442 12.6903C1.83642 12.1733 1.65742 11.6523 1.47842 11.1303L1.20742 10.3433C1.13042 10.1233 0.979418 9.7263 1.00242 9.3443C1.02442 8.5883 1.50842 7.8323 2.28542 7.5823C2.77542 7.4393 2.99742 7.5113 3.28642 7.4943L4.13142 7.4973C5.26042 7.5013 6.39442 7.5063 7.52742 7.5103C12.0614 7.5283 16.5954 7.5453 20.8454 7.5623C22.9704 7.5703 25.0254 7.5783 26.9734 7.5853L27.3374 7.5873C27.4924 7.5893 27.6574 7.6103 27.8114 7.6543C28.1224 7.7453 28.3964 7.9273 28.6024 8.1573C29.0154 8.6253 29.1714 9.2463 29.0174 9.8573C28.6774 10.7963 28.3374 11.5513 28.0184 12.3583C25.4464 18.6543 23.7324 22.8513 23.7324 22.8513L23.0614 22.5803Z" fill="black"/>
<path fill-rule="evenodd" clip-rule="evenodd" d="M22.2885 11.7879H22.2815L7.45851 12.3809C7.39251 12.3839 7.35551 12.4219 7.34051 12.4449C7.32351 12.4669 7.29951 12.5139 7.31651 12.5769L7.63051 13.6719C7.64851 13.7379 7.70951 13.7829 7.77751 13.7829H21.6925C21.7575 13.7829 21.8155 13.7419 21.8375 13.6809L22.4335 11.9929C22.4565 11.9259 22.4305 11.8749 22.4125 11.8509C22.3945 11.8269 22.3555 11.7879 22.2885 11.7879ZM21.6925 14.5329H7.77751C7.37651 14.5329 7.01851 14.2639 6.90951 13.8769L6.59651 12.7829C6.51851 12.5159 6.56851 12.2319 6.73151 12.0049C6.89451 11.7789 7.14951 11.6419 7.42951 11.6319L22.2525 11.0389C22.5615 11.0299 22.8385 11.1639 23.0165 11.4059C23.1935 11.6479 23.2405 11.9609 23.1405 12.2439L22.5445 13.9309C22.4175 14.2909 22.0755 14.5329 21.6925 14.5329Z" fill="black"/>
<path fill-rule="evenodd" clip-rule="evenodd" d="M20.6713 18.9569C20.7473 18.9559 20.8093 18.9109 20.8253 18.8379L21.1863 17.3029C21.2003 17.2399 21.1743 17.1939 21.1563 17.1719C21.1393 17.1499 21.1013 17.1139 21.0353 17.1139H21.0343L8.94233 17.1999C8.87533 17.2009 8.83633 17.2389 8.81933 17.2619C8.80233 17.2849 8.77633 17.3319 8.79433 17.3959L9.10533 18.4809C9.12333 18.5449 9.18133 18.5899 9.24733 18.5919L20.6713 18.9569ZM20.6763 19.7069C20.6663 19.7069 20.6573 19.7069 20.6483 19.7069L9.22433 19.3419C8.83033 19.3299 8.49233 19.0659 8.38433 18.6869L8.07333 17.6019C7.99533 17.3279 8.04833 17.0399 8.21933 16.8119C8.39033 16.5839 8.65133 16.4519 8.93633 16.4499L21.0293 16.3639C21.3413 16.3559 21.5693 16.4869 21.7423 16.7049C21.9163 16.9219 21.9803 17.2029 21.9163 17.4749L21.5563 19.0099C21.4603 19.4179 21.0923 19.7069 20.6763 19.7069Z" fill="black"/>
<path fill-rule="evenodd" clip-rule="evenodd" d="M6.56763 7.71075C6.56763 7.71075 7.30063 6.82175 8.45563 5.53875C9.03963 4.90175 9.72563 4.16375 10.4846 3.38875C10.8696 3.00675 11.2726 2.61675 11.6996 2.22875C11.9156 2.03575 12.1306 1.84175 12.3696 1.65375L12.5476 1.51175L12.5926 1.47675L12.6476 1.43675L12.7356 1.37475C12.8726 1.28175 13.0346 1.18175 13.2126 1.11175C13.3916 1.03975 13.6206 0.97575 13.8896 1.00975C14.1626 1.03975 14.3996 1.19275 14.5426 1.32475C14.6176 1.39175 14.6776 1.45575 14.7306 1.51275L14.7686 1.55475L14.8106 1.60475L14.8266 1.62675C14.8456 1.65175 14.8676 1.67675 14.9146 1.75575C15.0606 2.01075 15.0886 2.23575 15.0826 2.45775C15.0226 3.32075 14.4316 3.80575 14.0996 4.16875C13.3526 4.95775 12.6176 5.64775 11.9846 6.23675C11.3566 6.83075 10.8056 7.29675 10.4246 7.62675C10.0426 7.95575 9.81463 8.13475 9.81463 8.13475L9.40563 7.69375C9.40563 7.69375 10.1936 6.86475 11.3746 5.61975C11.9606 4.99575 12.6436 4.26775 13.3756 3.48775C13.5406 3.30275 13.7686 3.07075 13.8636 2.92675C13.9796 2.75875 14.0576 2.55375 14.0566 2.42075C14.0616 2.36175 14.0326 2.29775 14.0376 2.30575C14.0526 2.32075 14.0306 2.28975 14.0056 2.25875L13.9886 2.23775L13.9806 2.22775C13.9736 2.21975 14.0236 2.27975 14.0006 2.25175L13.9966 2.24775L13.9636 2.20975C13.9206 2.16175 13.8826 2.12175 13.8516 2.09275C13.7846 2.03375 13.7666 2.02875 13.7516 2.02675C13.7346 2.02275 13.6746 2.02575 13.5896 2.05975C13.4996 2.09375 13.4146 2.14275 13.3126 2.20775L13.2236 2.26875C13.2146 2.27475 13.1826 2.29675 13.1916 2.29075L13.1516 2.32175L12.9926 2.44475C12.7796 2.60675 12.5686 2.79075 12.3616 2.97075C11.9456 3.33475 11.5456 3.71375 11.1596 4.08075C10.3776 4.80775 9.66263 5.50875 9.05463 6.11375C7.82763 7.31575 7.01063 8.11775 7.01063 8.11775L6.56763 7.71075Z" fill="black"/>
<path fill-rule="evenodd" clip-rule="evenodd" d="M22.9532 8.30028C22.9532 8.30028 22.1352 7.70428 20.9082 6.80928C20.2962 6.36128 19.5802 5.84328 18.8022 5.30528C18.4142 5.03628 18.0132 4.75828 17.6062 4.47628C17.4002 4.33928 17.1932 4.20128 16.9852 4.06328L16.6702 3.86228C16.5772 3.80328 16.4222 3.70428 16.4262 3.72128C16.3172 3.68128 16.1872 3.69428 16.0882 3.75628C16.0382 3.77228 15.8042 4.04128 15.7462 4.12828C15.6942 4.21928 15.6832 4.34028 15.7272 4.45428C15.7492 4.51028 15.7832 4.56428 15.8272 4.60928C15.8492 4.63228 15.8722 4.65428 15.9002 4.67228L16.0432 4.77428C16.8242 5.31628 17.5402 5.84228 18.1542 6.29228C19.3842 7.18828 20.1832 7.81728 20.1832 7.81728L19.8432 8.31228C19.8432 8.31228 18.9742 7.78728 17.7012 6.95228C17.0642 6.53628 16.3202 6.05228 15.5372 5.51228L15.3872 5.41028C15.3152 5.36128 15.2472 5.30328 15.1842 5.24128C15.0582 5.11528 14.9552 4.96228 14.8852 4.79128C14.7432 4.45228 14.7502 4.03128 14.9412 3.68328C14.9692 3.63628 15.0022 3.58228 15.0302 3.54328L15.0872 3.46828L15.2262 3.30528C15.2822 3.23128 15.4592 3.04328 15.6192 2.96028C15.9532 2.76128 16.3782 2.72428 16.7452 2.86428C16.9902 2.96428 17.0382 3.02528 17.1602 3.09628L17.4822 3.30828C17.6932 3.45228 17.9032 3.59528 18.1122 3.73828C18.5252 4.02528 18.9282 4.31328 19.3132 4.59728C20.0782 5.17128 20.7792 5.72128 21.3772 6.19628C22.5612 7.16228 23.3272 7.82928 23.3272 7.82928L22.9532 8.30028Z" fill="black"/>
</svg>
