<svg width="30" height="32" viewBox="0 0 30 32" fill="none" xmlns="http://www.w3.org/2000/svg">
<path fill-rule="evenodd" clip-rule="evenodd" d="M7.26513 3.79958L3.58313 9.51158L14.6581 16.1396L17.3991 6.01158L12.6511 2.39758L7.26513 3.79958Z" fill="#F18B98"/>
<mask id="mask0" mask-type="alpha" maskUnits="userSpaceOnUse" x="3" y="1" width="25" height="31">
<path fill-rule="evenodd" clip-rule="evenodd" d="M27.308 31.9073V1L3 1V31.9073H27.308Z" fill="white"/>
</mask>
<g mask="url(#mask0)">
<path fill-rule="evenodd" clip-rule="evenodd" d="M3.96776 9.41008L14.6058 16.0441L17.8868 10.0811L17.9218 9.99308L18.6798 8.64008L20.4078 5.50008L5.99576 9.05008C6.11876 8.76408 6.34976 8.56308 6.63176 8.48608L20.0228 4.78908L14.9278 2.53608C14.7638 2.46308 14.5768 2.44608 14.4018 2.48908L7.82676 4.08508L3.96776 9.41008ZM6.05776 24.1201C6.55676 25.6701 7.54676 26.9111 8.29076 27.6801C9.20676 28.6261 10.3188 29.3801 11.5968 29.9221C13.1038 30.5611 14.7358 30.8391 16.3168 30.7261C16.9938 30.6771 17.6698 30.5681 18.3248 30.4001C19.9618 29.9811 21.4818 29.1951 22.7238 28.1251C24.7698 26.3621 26.0768 23.7491 26.2198 21.1361C26.3378 18.9751 25.7708 16.8481 24.6238 15.1451C23.8498 13.9941 22.8898 13.0351 21.7708 12.2941C20.9878 11.7751 19.7558 11.0981 18.3308 10.8151C18.2128 10.7911 18.1418 10.7761 18.0788 10.7921C17.9958 10.8131 17.9618 10.8751 17.9178 10.9531L14.6958 16.3701C14.4698 16.2581 13.7058 15.8211 12.4198 15.0671L10.6238 14.0271L9.52876 13.3831C9.40176 13.3221 9.32176 13.2761 9.26476 13.2421C9.17376 13.1881 9.11176 13.1521 9.03076 13.1731C8.97176 13.1881 8.92576 13.2281 8.84176 13.2981C8.40076 13.6711 8.02976 14.0781 7.69176 14.4641C6.98476 15.2721 6.40876 16.2691 6.02376 17.3491C5.63176 18.4471 5.43376 19.6121 5.45176 20.7171C5.46576 21.5301 5.58476 22.3901 5.82676 23.4211L6.02076 23.3751L5.94776 23.4871L5.83076 23.4301L6.05776 24.1201ZM18.6298 31.5451C17.7138 31.7791 16.7718 31.9011 15.8318 31.9071C11.5138 31.9361 7.51776 29.5581 5.65176 25.8501C4.59776 23.7591 4.23576 21.3501 4.63076 19.0671C5.04976 16.6481 6.35076 14.4351 8.29176 12.8361L8.40276 12.7441L2.99976 9.62208L7.13476 3.16008C7.15376 3.13108 7.18976 3.11108 7.25676 3.09408L7.40576 3.06108L14.7958 1.00208C14.8368 0.992077 14.8818 1.01908 14.9518 1.06408L21.5948 4.78008L18.4218 10.1101L18.5608 10.1381C19.8058 10.3821 21.0488 10.8671 22.1568 11.5401C24.3558 12.8791 26.0218 14.9401 26.7298 17.1951C27.4448 19.4721 27.4978 21.7111 26.8848 23.6711C26.0728 26.2681 24.4278 28.4921 22.2508 29.9341C21.1338 30.6741 19.9158 31.2161 18.6308 31.5441L18.6298 31.5451Z" fill="#181716"/>
</g>
<path fill-rule="evenodd" clip-rule="evenodd" d="M19.7136 13.1038C19.7136 13.1038 19.8586 13.1798 20.1296 13.3228C20.4126 13.4848 20.8096 13.7248 21.2746 14.0958C21.7366 14.4668 22.2656 14.9678 22.7636 15.6338C23.2636 16.2978 23.7086 17.1418 24.0096 18.1218L24.1206 18.5148L24.1966 18.8828C24.2536 19.1248 24.3016 19.3838 24.3236 19.6748C24.3586 19.9578 24.3846 20.2448 24.3756 20.5288C24.3826 20.8148 24.3766 21.1048 24.3386 21.3978C24.2306 22.5688 23.8616 23.7848 23.2176 24.8998C22.5616 26.0058 21.6296 27.0008 20.4946 27.7428C19.3746 28.4898 17.9956 28.9448 16.6576 29.0568C13.8806 29.3268 11.1096 28.0788 9.46955 26.1048C8.63555 25.1278 8.06055 23.9978 7.75155 22.8678C7.64655 22.5538 7.62455 22.3148 7.55855 22.0398C7.52455 21.7528 7.46655 21.4628 7.46055 21.1898C7.41355 20.6398 7.44455 20.1048 7.49855 19.5978C7.61355 18.5798 7.93755 17.6858 8.30055 16.9468C8.66955 16.2068 9.09355 15.6208 9.47755 15.1728C9.87155 14.7308 10.2136 14.4168 10.4576 14.2168C10.7046 14.0208 10.8366 13.9158 10.8366 13.9158L11.1956 14.3878C11.1956 14.3878 11.0766 14.4888 10.8536 14.6788C10.6336 14.8718 10.3276 15.1738 9.97855 15.5918C9.29855 16.4298 8.48555 17.8348 8.28655 19.6888C8.24455 20.1488 8.22155 20.6318 8.27055 21.1288C8.27855 21.3808 8.33455 21.6158 8.36255 21.8668C8.42655 22.1178 8.46955 22.4298 8.55255 22.6418C8.84555 23.6578 9.37555 24.6648 10.1326 25.5308C10.8826 26.4038 11.8726 27.1178 12.9916 27.5658C14.1006 28.0268 15.3566 28.2178 16.5496 28.0888C17.7896 27.9538 18.9556 27.5908 19.9736 26.9308C20.9856 26.2838 21.8246 25.4078 22.4206 24.4278C23.0036 23.4388 23.3446 22.3558 23.4516 21.3098C23.5146 20.7908 23.5086 20.2608 23.4566 19.7908C23.4296 19.3418 23.2946 18.7468 23.1876 18.3678C22.6636 16.5868 21.6206 15.3588 20.8076 14.6568C20.3976 14.3018 20.0376 14.0648 19.7986 13.9148C19.5376 13.7638 19.3976 13.6828 19.3976 13.6828L19.7136 13.1038Z" fill="#181716"/>
</svg>
