<svg width="30" height="32" viewBox="0 0 30 32" fill="none" xmlns="http://www.w3.org/2000/svg">
<path fill-rule="evenodd" clip-rule="evenodd" d="M12.3348 19.6327V28.0642C12.3348 28.0642 10.7918 26.3793 8.4138 25.7561C6.0358 25.1321 4.4928 24.9709 4.4928 24.9709L4.5028 22.9793L5.1448 23.3073L5.3348 22.9026V21.9039L5.2648 20.8188L4.8698 19.7696L4.5158 19.3794L4.5818 15.7271C4.5818 15.7271 7.6028 16.1871 9.5708 17.3538C11.5378 18.5204 12.3348 19.6327 12.3348 19.6327Z" fill="#B4E0F1"/>
<path fill-rule="evenodd" clip-rule="evenodd" d="M14.7088 21.8004C14.7088 21.8004 14.7308 20.9084 15.6508 20.1106C16.5718 19.3128 20.1718 16.8242 23.0568 16.1749C25.9428 15.5265 25.3348 15.7274 25.3348 15.7274V19.4089C25.3348 19.4089 23.3398 20.4493 23.2538 21.6965C23.1678 22.9437 23.2458 23.2815 23.4598 23.7086C23.6738 24.1356 24.3348 24.2327 24.3348 24.2327V25.1169C24.3348 25.1169 20.9118 26.3311 19.2098 27.3327C16.8078 28.7469 15.4268 30.5541 14.9978 31.0947C14.5698 31.6354 14.7088 21.8004 14.7088 21.8004Z" fill="#B4E0F1"/>
<path fill-rule="evenodd" clip-rule="evenodd" d="M25.9126 21.7452C25.7836 22.0296 25.5376 22.314 25.2506 22.5431C25.0996 22.6625 24.9336 22.7644 24.7666 22.844C24.6866 22.8799 24.5896 22.9167 24.5306 22.9313C24.5126 22.941 24.4626 22.9497 24.4016 22.9546C24.3966 22.9546 24.3886 22.9527 24.3816 22.9604C24.3886 22.9585 24.3646 22.973 24.3356 22.9148C24.3056 22.8682 24.2826 22.7867 24.2676 22.7013C24.2376 22.5246 24.2386 22.3218 24.2516 22.1199C24.2676 21.9161 24.2956 21.7084 24.3466 21.5075C24.3706 21.4055 24.3966 21.3056 24.4316 21.2085C24.4646 21.1192 24.5006 21.026 24.5476 20.9212L24.5446 20.929C24.7246 20.5495 24.9006 20.2137 25.1636 19.972C25.2276 19.9099 25.2996 19.8545 25.3696 19.8041L25.4506 19.7517C25.4896 19.7604 25.5496 19.774 25.6026 19.7944C25.6766 19.8215 25.7466 19.8555 25.8036 19.8934C25.8606 19.9293 25.9066 19.9739 25.9246 20.0021C25.9246 20.0021 25.9216 20.0011 25.9226 19.9992L25.9576 20.069C25.9406 20.0467 25.9666 20.1108 25.9696 20.1321C26.0046 20.269 26.0176 20.4524 26.0166 20.6368C26.0076 20.993 25.9696 21.3822 25.9126 21.7452ZM25.5586 19.6847C25.5406 19.6973 25.5316 19.7031 25.5166 19.7119C25.5166 19.7119 25.5126 19.7128 25.5106 19.7138L25.5496 19.6905L25.5586 19.6847ZM19.9376 16.7982C19.7166 16.8991 19.4706 17.0156 19.2466 17.1359C18.3396 17.6037 17.4576 18.1269 16.6226 18.7277C16.2086 19.0325 15.8026 19.3527 15.4206 19.706C15.2316 19.8837 15.0436 20.0661 14.8666 20.2622C14.8286 20.3049 14.7926 20.3495 14.7556 20.3922C14.6156 20.2185 14.4706 20.0506 14.3196 19.8895C13.9586 19.5139 13.5666 19.1751 13.1636 18.8548C12.7546 18.5413 12.3366 18.2414 11.8996 17.9726C11.4666 17.6979 11.0206 17.4455 10.5666 17.2097C10.3426 17.0864 10.0996 16.9719 9.87759 16.868C9.6516 16.771 9.41659 16.6691 9.18659 16.5846L10.6996 15.7926C11.1696 15.5471 11.7476 15.6208 12.1356 15.978L14.0966 17.7852C14.3266 17.9968 14.6216 18.1036 14.9176 18.1036C15.2126 18.1036 15.5086 17.9968 15.7386 17.7852L18.0276 15.6762C18.2086 15.5112 18.4796 15.4869 18.6856 15.6208L20.2866 16.6516C20.1696 16.7001 20.0516 16.7496 19.9376 16.7982ZM14.7866 30.7872L14.7836 30.7853C14.7936 30.7931 14.8006 30.7989 14.7866 30.7872ZM5.4126 20.927C5.4586 21.029 5.49559 21.1202 5.5276 21.2075C5.56259 21.3056 5.5866 21.4055 5.61159 21.5075C5.66059 21.7093 5.6846 21.917 5.69959 22.1199C5.7116 22.3227 5.7106 22.5246 5.67959 22.6993C5.66359 22.7847 5.6396 22.8653 5.6096 22.909C5.5806 22.9653 5.5586 22.9459 5.5706 22.9449C5.5656 22.9362 5.5576 22.9371 5.5576 22.9371C5.49559 22.9323 5.44659 22.9226 5.43059 22.9129C5.37459 22.8973 5.2776 22.8605 5.19959 22.8245C5.0346 22.745 4.8706 22.6421 4.7216 22.5227C4.4416 22.2936 4.1976 22.0141 4.0726 21.7346C4.04659 21.5667 4.0226 21.3842 4.00859 21.2085C3.9876 21.0154 3.9706 20.8222 3.9686 20.6378C3.9656 20.4544 3.9806 20.2729 4.0116 20.138C4.01359 20.1185 4.0396 20.0545 4.0206 20.0797L4.0536 20.0118C4.06959 19.9856 4.1116 19.9438 4.1636 19.9089C4.2186 19.872 4.2876 19.8371 4.36059 19.8109C4.41159 19.7895 4.46959 19.775 4.5066 19.7662L4.5806 19.8128C4.65159 19.8623 4.7236 19.9167 4.78859 19.9768C5.05159 20.2156 5.23059 20.5495 5.4126 20.927ZM4.44459 19.7274C4.44159 19.7255 4.4376 19.7245 4.4356 19.7235C4.4196 19.7148 4.4106 19.709 4.3916 19.6954L4.40059 19.7012L4.44459 19.7274ZM9.1726 12.9789C9.2906 12.3635 9.3826 11.6599 9.38559 11.027C9.40359 10.3797 9.3886 9.73325 9.3556 9.09363L9.24659 7.20098C9.2246 6.57883 9.22659 5.98386 9.34459 5.39083C9.43059 4.79004 9.61759 4.21545 9.8566 3.67095C10.0946 3.12354 10.4466 2.63533 10.8646 2.21604C11.7046 1.37163 12.8856 0.885363 14.1146 0.733952L14.5696 0.688334L15.0586 0.670863L15.5066 0.686393L15.9596 0.740746C16.5606 0.836834 17.1366 1.05425 17.6556 1.3658C18.1756 1.67736 18.6396 2.08307 19.0326 2.54798C19.4296 3.01969 19.7376 3.52925 19.9886 4.10092C20.2266 4.64639 20.3806 5.25495 20.5006 5.86254C20.5956 6.35754 20.6626 6.86322 20.7106 7.36501C19.9426 7.24951 19.1716 7.10101 18.4146 6.91951C17.9786 6.8108 17.5446 6.6953 17.1166 6.56428C16.8996 6.50507 16.6906 6.42645 16.4786 6.35754C16.2666 6.28669 16.0556 6.21583 15.8506 6.13042C15.4316 5.9761 15.0306 5.79169 14.6336 5.60242C14.4336 5.50925 14.2496 5.3918 14.0576 5.28892C13.8616 5.18798 13.6856 5.06472 13.5106 4.94048C13.3346 4.81722 13.1506 4.70269 13.0026 4.55419C12.8556 4.41054 12.6666 4.28048 12.5526 4.1281C12.4346 3.97183 12.3026 3.84372 12.1856 3.67289L11.8706 3.08375L11.1806 3.43801L11.5076 4.02036C11.5776 4.12228 11.6606 4.22516 11.7456 4.32707C11.7096 4.39501 11.6666 4.47363 11.6066 4.57069C11.4476 4.83275 11.2056 5.16857 10.9176 5.46266C10.6326 5.75966 10.3026 6.00813 10.0376 6.16342C9.90559 6.24398 9.79159 6.30028 9.70859 6.33619C9.62759 6.37404 9.5806 6.39636 9.5806 6.39636L9.79259 6.90786C9.79259 6.90786 9.84759 6.88457 9.94359 6.84478C10.0416 6.80789 10.1776 6.74772 10.3336 6.6623C10.6486 6.49633 11.0406 6.22651 11.3796 5.90525C11.7216 5.58689 12.0106 5.22195 12.2046 4.93369C12.2206 4.91039 12.2326 4.89001 12.2476 4.86769C12.3386 4.94339 12.4306 5.01619 12.5196 5.09869C12.6946 5.26369 12.8966 5.38695 13.0936 5.51798C13.2886 5.65192 13.4856 5.78198 13.6956 5.88486C13.9036 5.9926 14.1046 6.11198 14.3176 6.2071C14.7416 6.40025 15.1666 6.58272 15.6046 6.73413C15.8206 6.81954 16.0376 6.88263 16.2586 6.95154C16.4796 7.01948 16.6906 7.08354 16.9136 7.13983C17.3576 7.26601 17.7906 7.35142 18.2396 7.45333C18.6926 7.5533 19.0856 7.62998 19.5086 7.69598C19.4236 8.77528 18.7996 14.0495 14.7346 14.0495C11.6186 14.0495 10.6196 9.71772 10.3346 7.85516L9.77259 7.93572C10.0226 9.56922 10.7996 12.9682 13.0066 14.1679C12.9076 14.2892 12.7866 14.4348 12.6376 14.5998L12.4966 14.758C12.3316 14.9453 12.2066 15.0831 12.0086 15.2481C11.5106 15.0356 10.9296 15.0462 10.4296 15.3083L8.55559 16.2886C8.62359 15.8344 8.72859 15.3287 8.8176 14.855L9.1726 12.9789ZM13.5396 14.4027C13.9036 14.5289 14.3006 14.5998 14.7346 14.5998C15.3296 14.5998 15.8566 14.4998 16.3266 14.328C16.5356 14.6114 16.8986 15.0569 17.3906 15.5034L15.3476 17.3854C15.1066 17.6076 14.7286 17.6076 14.4876 17.3854L12.5266 15.5791C12.5186 15.5713 12.5086 15.5665 12.5006 15.5587C12.6646 15.4102 12.7886 15.2734 12.9276 15.1171L13.0656 14.9628C13.2686 14.7376 13.4286 14.5425 13.5396 14.4027ZM21.0886 16.3653C21.0406 16.3818 20.9926 16.3973 20.9446 16.4138L18.9996 15.1608C18.6386 14.9288 18.1906 14.9385 17.8326 15.1491C17.3976 14.7628 17.0626 14.3668 16.8536 14.0931C19.4816 12.6926 19.9836 8.7976 20.0706 7.77266C20.1356 7.78139 20.2026 7.78916 20.2696 7.79692C20.2656 7.83963 20.2616 7.88622 20.2566 7.9396C20.2456 8.06383 20.2316 8.21428 20.2156 8.38704C20.2026 8.55204 20.1746 8.75975 20.1696 8.9956C20.1526 9.88757 20.2236 11.0232 20.3316 12.1704C20.3876 12.7401 20.4486 13.3167 20.5466 13.8553C20.6416 14.3901 20.7476 14.8812 20.8416 15.3005C20.9466 15.7538 21.0316 16.1207 21.0886 16.3653ZM25.3346 26.2313C24.3346 26.3371 20.3636 26.935 16.2356 30.1525L16.4846 30.5825C21.0826 26.999 25.1476 26.7612 25.1896 26.7593L25.3346 26.7467V26.2313ZM25.3346 23.6078L25.6246 23.3855C26.0526 23.0585 26.4066 22.6508 26.6666 22.1859L26.7686 22.0044L26.7866 21.9568C26.8746 21.5133 26.9366 21.092 26.9246 20.63C26.9176 20.4 26.9066 20.1651 26.8306 19.8992C26.8036 19.8215 26.7926 19.7866 26.7356 19.6692L26.6956 19.6012C26.6656 19.5575 26.6326 19.5139 26.5986 19.4731C26.4796 19.3411 26.3536 19.2567 26.2246 19.1887C26.0966 19.1217 25.8966 19.0752 25.7646 19.0412C25.6526 19.014 25.3346 18.9975 25.3346 18.9936V15.7276L25.1606 15.6859H25.1626C24.1376 15.6859 23.1386 15.8965 22.1426 16.1595C21.9766 16.2042 21.8106 16.1993 21.6456 16.2459C21.5986 16.0013 21.5306 15.6276 21.4496 15.2093C21.3726 14.791 21.2856 14.2902 21.2126 13.7699C21.1376 13.2536 21.0986 12.6877 21.0646 12.1228C20.9986 10.9989 20.9716 9.85263 21.0176 9.03636C21.0286 8.84516 21.0596 8.66269 21.0806 8.48313C21.1026 8.31036 21.1226 7.75422 21.1386 7.62998C21.1536 7.51351 21.1656 6.95057 21.1736 6.95057C21.1736 6.95057 21.1986 6.19448 21.0866 5.5568C20.9686 4.91913 20.8226 4.38822 20.5616 3.76219C20.3106 3.16625 19.9636 2.61495 19.5396 2.10151C19.1406 1.61719 18.6696 1.20469 18.1326 0.857216C17.5276 0.46704 16.4296 0.0894811 15.7086 0.0069811C15.6616 0.00212816 15.6136 -0.00369537 15.5666 -0.00854831L15.0366 -0.0289307L14.5466 -0.016313L14.0266 0.0273635C12.6736 0.173922 11.3046 0.702893 10.3056 1.67736C9.81159 2.15878 9.3966 2.72463 9.1166 3.34095C8.8346 3.95533 8.6196 4.59883 8.51559 5.25204C8.3766 5.9033 8.3636 6.58466 8.37759 7.22719L8.4596 9.13051C8.4886 9.91863 8.48959 10.699 8.4346 11.4784C8.4026 11.9277 8.3266 12.3742 8.2366 12.8168L7.8566 14.6726C7.7636 15.1433 7.66059 15.581 7.5786 16.0683C6.6236 15.8062 5.6556 15.6014 4.6686 15.4549L4.3346 15.4063V15.7276C4.3346 16.8137 4.3516 17.8988 4.3446 18.9849C4.2616 18.9936 4.18959 19.0072 4.1116 19.0247C3.9786 19.0587 3.8516 19.1052 3.7206 19.1722C3.5906 19.2411 3.4636 19.3246 3.3416 19.4595C3.3056 19.5012 3.2736 19.5459 3.2426 19.5915L3.2016 19.6585C3.1426 19.7798 3.1326 19.8138 3.1036 19.8934C3.0236 20.1612 3.0096 20.3981 3.0016 20.63C2.9966 20.861 3.0056 21.0843 3.0266 21.3036C3.0546 21.5259 3.0866 21.7336 3.1326 21.9617L3.1436 22.0141L3.1606 22.0529C3.3936 22.5693 3.7756 22.9342 4.1996 23.2128C4.4126 23.3516 4.63859 23.471 4.8896 23.5602C5.0216 23.602 5.1376 23.6379 5.3036 23.6612C5.3976 23.6757 5.4596 23.6767 5.5096 23.6757C5.6196 23.6767 5.72659 23.6544 5.82859 23.6214C6.04659 23.5321 6.1926 23.3496 6.2476 23.2011C6.3136 23.0478 6.3336 22.9109 6.34759 22.7809C6.36859 22.5217 6.34459 22.2859 6.3106 22.0539C6.2766 21.8229 6.2146 21.6016 6.1616 21.3793L6.0696 21.0464C6.0346 20.927 5.99859 20.8145 5.96259 20.7155L5.95959 20.7087C5.81959 20.3204 5.6476 19.8769 5.3226 19.5032C5.2446 19.4081 5.1586 19.3217 5.0656 19.2382L4.9226 19.1188L4.9176 19.1159C4.9096 18.0987 4.9156 17.0825 4.9176 16.0663C5.7876 16.2245 6.65859 16.4255 7.50459 16.6797C7.98059 16.8215 8.4516 16.9816 8.9076 17.165C9.14059 17.2543 9.35359 17.3533 9.57659 17.4533C9.80959 17.5678 10.0196 17.6717 10.2336 17.795C10.6686 18.0318 11.0926 18.2841 11.5026 18.5549C11.9306 18.8296 12.3356 19.1344 12.7276 19.4498C13.1336 19.775 13.5096 20.1341 13.8516 20.5213C13.9726 20.6582 14.0896 20.798 14.1956 20.9426C14.3166 21.1017 14.3196 21.027 14.3976 21.1755L14.4176 26.3022L14.3206 28.913L14.2196 30.2175V30.3369L14.2566 30.2806C13.9066 29.9972 13.7316 29.9661 13.3586 29.7099L12.8376 29.3139L12.1766 28.8791C11.8176 28.6422 11.4446 28.4258 11.0626 28.2249C10.6816 28.025 10.3016 27.825 9.9076 27.6493C9.49559 27.4581 9.0776 27.2854 8.6516 27.1272C8.2236 26.9719 7.7936 26.8243 7.3546 26.703C6.9176 26.5749 6.17959 26.473 5.7316 26.3847C5.3666 26.3187 4.3346 26.2672 4.3346 26.2342V26.4837V26.5002C4.3346 26.5002 5.1886 26.6632 5.8396 26.8137C6.26559 26.9127 6.72759 27.0728 7.14759 27.2029C7.56859 27.3252 7.9986 27.5057 8.4086 27.661C8.8796 27.8435 9.3536 28.0667 9.8016 28.2841C10.2006 28.4782 10.5886 28.6879 10.9696 28.913C11.2876 29.1004 11.6106 29.2857 11.9126 29.4973L12.4596 29.8613L12.9856 30.2525C13.2426 30.4446 13.4946 30.6436 13.7406 30.8494L14.2556 31.2793L14.3406 31.3482C14.3406 31.3482 14.3956 31.3871 14.4336 31.4055C14.4736 31.4249 14.5036 31.4356 14.5406 31.4463C14.6856 31.4841 14.8406 31.4686 14.9706 31.4016C15.1026 31.3385 15.2356 31.2153 15.2826 31.0736C15.3046 31.0124 15.3346 30.9095 15.3346 30.8853V30.8028L15.3116 30.4767L15.3046 29.1722L15.3146 26.5613L15.3346 21.3405V21.3366V21.2473L15.2966 21.1823C15.2926 21.1755 15.2856 21.1697 15.2826 21.1629C15.3636 21.0503 15.4516 20.9348 15.5456 20.8261C15.6966 20.6485 15.8616 20.4777 16.0306 20.3097C16.3726 19.9759 16.7446 19.6643 17.1276 19.3654C17.9026 18.7743 18.7376 18.2463 19.6046 17.7687C19.8196 17.6455 20.0256 17.5426 20.2596 17.4271C20.4826 17.3271 20.6916 17.232 20.9246 17.1427C21.3786 16.9593 22.0596 16.8088 22.5356 16.6691C23.3816 16.4196 24.3346 16.109 25.3346 16.043V19.2363V19.409C25.2416 19.4925 24.9546 19.5915 24.8756 19.6847C24.5496 20.0564 24.0906 20.927 24.0566 21.0455L23.8806 21.3793C23.8296 21.6026 23.7296 21.8239 23.6966 22.0549C23.6636 22.2859 23.6196 22.5217 23.6426 22.7799C23.6556 22.909 23.6666 23.0449 23.7336 23.1953C23.7886 23.3409 23.9276 23.5195 24.1396 23.6059C24.2406 23.6379 24.3426 23.6592 24.4496 23.6583C24.4996 23.6583 24.7726 23.6573 24.8646 23.6427C24.9646 23.6282 25.3346 23.6078 25.3346 23.5855V23.6078Z" fill="black"/>
<path fill-rule="evenodd" clip-rule="evenodd" d="M25.0015 19.629H25.4365V15.6438L25.0015 15.6855V19.629Z" fill="black"/>
<mask id="mask0" mask-type="alpha" maskUnits="userSpaceOnUse" x="3" y="-1" width="24" height="33">
<path fill-rule="evenodd" clip-rule="evenodd" d="M3 31.4664H26.926V-0.0291748H3V31.4664Z" fill="white"/>
</mask>
<g mask="url(#mask0)">
<path fill-rule="evenodd" clip-rule="evenodd" d="M4.34595 26.4339H4.93095V22.9786H4.34595V26.4339Z" fill="black"/>
<path fill-rule="evenodd" clip-rule="evenodd" d="M24.75 26.4339H25.335V22.9786H24.75V26.4339Z" fill="black"/>
</g>
</svg>
