<svg width="30" height="32" viewBox="0 0 30 32" fill="none" xmlns="http://www.w3.org/2000/svg">
<path fill-rule="evenodd" clip-rule="evenodd" d="M16.6523 13.6759C16.6523 13.6759 17.9733 14.77 17.7633 16.2289C17.5663 17.5962 15.8623 18.6739 14.1153 19.0283C12.3683 19.3817 9.71526 18.9953 9.32426 18.8706C8.93326 18.747 8.31626 19.2405 8.26626 19.8226C8.21626 20.4048 11.8683 30.2431 11.8683 30.2431C11.8683 30.2431 15.2703 31.0066 19.1783 29.083C23.3643 27.0234 23.9533 24.7207 23.9533 24.7207L20.2073 14.0911L19.0563 13.3719L17.7103 13.1082L16.6523 13.6759Z" fill="#B0A7D2"/>
<path fill-rule="evenodd" clip-rule="evenodd" d="M10.0934 22.0329L9.77942 21.3354C9.77942 21.3354 13.7014 21.0552 15.5274 20.404C17.5964 19.6674 19.6084 17.8746 19.6084 17.8746C19.6084 17.8746 21.3114 22.8685 21.4034 23.2188C21.4944 23.5691 19.6884 24.7777 19.1204 25.1249C18.5514 25.4721 16.3034 26.8424 14.4324 26.9331C12.5624 27.0248 11.6914 27.034 11.6914 27.034L10.0934 22.0329Z" fill="white"/>
<mask id="mask0" mask-type="alpha" maskUnits="userSpaceOnUse" x="5" y="0" width="12" height="19">
<path fill-rule="evenodd" clip-rule="evenodd" d="M16.7868 0.0301514H5V18.3068H16.7868V0.0301514Z" fill="white"/>
</mask>
<g mask="url(#mask0)">
<path fill-rule="evenodd" clip-rule="evenodd" d="M16.2688 15.1784L10.5468 0.896333L10.9158 1.22088C10.8218 1.19718 10.6948 1.17142 10.5808 1.15288C10.4648 1.13227 10.3458 1.11476 10.2278 1.10136C9.99076 1.07458 9.75176 1.05603 9.51576 1.055C9.04376 1.05397 8.57176 1.10033 8.14476 1.23839L7.98476 1.29197C7.95076 1.30227 7.87276 1.3373 7.81976 1.35894C7.69376 1.40839 7.60176 1.45682 7.49576 1.50524C7.28276 1.61342 7.07276 1.73088 6.86976 1.86276C6.66676 1.99567 6.46976 2.13888 6.28176 2.29342C6.18676 2.36967 6.09576 2.45003 6.00576 2.53142C5.91876 2.61076 5.82576 2.70245 5.75676 2.77561V2.77664L5.83876 2.37688L10.3568 17.6223L10.1638 17.4378C10.4448 17.5038 10.7398 17.5605 11.0298 17.6078C11.3208 17.6542 11.6138 17.6923 11.9058 17.7202C12.1988 17.7428 12.4918 17.7634 12.7808 17.7572C12.9258 17.7603 13.0678 17.7449 13.2118 17.7387C13.3508 17.7191 13.4958 17.7119 13.6298 17.6779C13.7688 17.6563 13.8948 17.612 14.0238 17.5718C14.1498 17.5203 14.3048 17.4605 14.4328 17.4018C14.6938 17.2864 14.9558 17.1494 15.2058 17.002C15.4548 16.8516 15.6948 16.6857 15.9178 16.5023C16.0298 16.4106 16.3888 16.1077 16.4428 15.879L16.5508 16.0068C16.6958 16.1768 16.6988 16.4302 16.5598 16.6054C16.4468 16.7496 16.3198 16.8712 16.2498 16.9289C16.0028 17.1318 15.7428 17.3122 15.4728 17.4749C15.2008 17.6346 14.9268 17.7789 14.6348 17.9077C14.4888 17.9746 14.3608 18.0231 14.2078 18.0859C14.0488 18.1374 13.8898 18.19 13.7308 18.2157C13.5718 18.2538 13.4148 18.2631 13.2568 18.2848C13.0998 18.292 12.9418 18.3085 12.7868 18.3054C12.4748 18.3126 12.1668 18.2909 11.8598 18.2662C11.5528 18.2384 11.2488 18.1982 10.9468 18.1498C10.6428 18.1014 10.3468 18.0447 10.0408 17.9726L9.89576 17.9386L9.84776 17.7871L5.06976 2.62621L4.99976 2.40573L5.15176 2.22748L5.15276 2.22542C5.25676 2.10488 5.34676 2.01215 5.44576 1.91118C5.54476 1.81433 5.64376 1.71955 5.74776 1.62888C5.95276 1.44755 6.16776 1.27651 6.39076 1.11682C6.61476 0.958151 6.84776 0.813909 7.08976 0.678939C7.21376 0.61506 7.34976 0.540878 7.46076 0.492454C7.52576 0.463606 7.56476 0.441969 7.64976 0.406939L7.85176 0.329666C8.39476 0.130818 8.95376 0.0556056 9.50176 0.0339692C9.77676 0.0236662 10.0498 0.0339692 10.3218 0.053545C10.4588 0.0628177 10.5938 0.0772419 10.7308 0.0947571C10.8698 0.113303 10.9958 0.131848 11.1508 0.163787H11.1518L11.4208 0.226636L11.5218 0.488333L16.6988 13.8369C16.8198 14.1512 16.8318 14.3593 16.6338 14.7848C16.4698 15.1351 16.2688 15.1784 16.2688 15.1784Z" fill="#181716"/>
</g>
<path fill-rule="evenodd" clip-rule="evenodd" d="M12.5307 22.4552C12.9397 22.4067 13.3497 22.3552 13.7587 22.2852C13.9637 22.2522 14.1667 22.2141 14.3737 22.1739C14.5837 22.1306 14.7917 22.0863 14.9857 22.0358C15.1927 21.9864 15.4037 21.9204 15.6067 21.8535C15.8107 21.7824 16.0107 21.7061 16.2057 21.6206C16.4027 21.5392 16.5937 21.4455 16.7827 21.3507C16.9717 21.2549 17.1577 21.1549 17.3407 21.0498C17.7067 20.8417 18.0637 20.6192 18.4117 20.3843C18.5857 20.2668 18.7577 20.1463 18.9257 20.0206C18.9497 20.003 18.9737 19.9845 18.9977 19.967C18.9977 19.967 20.1547 23.0218 20.2547 23.3474C20.3307 23.5978 20.3217 23.8028 20.3217 23.8028C20.3467 23.8327 20.4627 23.8183 20.6327 23.6565C20.7907 23.5061 20.9097 23.2011 20.8247 22.9466L19.5617 19.1613L19.3837 18.6317L18.9337 18.9758V18.9769C18.7837 19.0923 18.6177 19.2128 18.4547 19.3261L17.9577 19.6641C17.6237 19.8846 17.2827 20.0927 16.9367 20.2864C16.5907 20.4832 16.2347 20.6532 15.8777 20.8108C15.6987 20.8891 15.5177 20.9592 15.3367 21.023C15.1537 21.0849 14.9757 21.1426 14.7877 21.1879C14.5877 21.2404 14.3967 21.2817 14.2087 21.3218C14.0167 21.36 13.8197 21.3981 13.6237 21.431C13.2317 21.5001 12.8337 21.5516 12.4367 21.601C12.0387 21.6505 11.6377 21.6763 11.2377 21.7134C10.8377 21.7484 10.4327 21.7731 10.0377 21.7875L9.47974 21.8081L11.5487 27.4171L11.7617 27.4181C12.1397 27.4171 12.4937 27.4068 12.8647 27.3883C13.2337 27.3697 13.5967 27.346 13.9667 27.31C14.3357 27.276 14.7017 27.2317 15.0707 27.174C15.4397 27.1173 15.8057 27.0431 16.1737 26.9514C16.3567 26.9009 16.5397 26.8525 16.7217 26.7866C16.9047 26.7227 17.0857 26.6526 17.2537 26.5733C17.6067 26.4105 17.9327 26.2302 18.2567 26.0355C18.7417 25.7418 19.1187 25.5193 19.6647 25.0763C19.9027 24.8836 19.9637 24.5415 19.7837 24.2912L19.7567 24.2582C19.2727 24.7723 18.6087 25.1834 17.9837 25.543C17.6727 25.7212 17.3487 25.8881 17.0317 26.0252C16.8657 26.0994 16.7027 26.156 16.5387 26.2096C16.3747 26.2642 16.2027 26.3054 16.0317 26.3487C15.6867 26.426 15.3357 26.4888 14.9807 26.5341C14.6257 26.5815 14.2677 26.6155 13.9077 26.6403C13.5487 26.667 13.1877 26.6804 12.8277 26.6907C12.5497 26.698 12.2707 26.699 11.9937 26.6959L10.6117 22.6138C10.8417 22.6015 11.0717 22.587 11.3017 22.5706C11.7117 22.5407 12.1217 22.5026 12.5307 22.4552Z" fill="#181716"/>
<path fill-rule="evenodd" clip-rule="evenodd" d="M8.98483 17.1871C8.98483 17.1871 8.80383 17.2015 8.53883 17.3715C8.26383 17.5487 7.86883 17.831 7.49483 18.2813C7.40583 18.3895 7.30683 18.5286 7.23983 18.6419L7.20483 18.7037C7.19483 18.7223 7.19383 18.7284 7.18683 18.7418C7.17783 18.7624 7.16183 18.7985 7.15083 18.8284C7.12783 18.8902 7.10883 18.9561 7.09483 19.0241C7.06583 19.1601 7.06083 19.3075 7.08583 19.4569C7.10383 19.5743 7.18983 19.8298 7.25183 20.0493C7.52583 20.9539 7.81683 21.9801 8.13783 23.0979C8.46183 24.2148 8.81283 25.4244 9.18383 26.704C9.37383 27.3418 9.56783 27.997 9.76783 28.6667C9.86883 28.9995 9.97183 29.3364 10.0758 29.6764C10.1808 30.0051 10.2948 30.376 10.4018 30.6542L10.4208 30.7057C10.4078 30.683 10.4568 30.7747 10.3938 30.6583L10.4028 30.6727L10.4208 30.7006L10.4398 30.7294C10.4448 30.7346 10.4388 30.7191 10.4378 30.716C10.4318 30.7047 10.4238 30.6944 10.4138 30.6882C10.4138 30.6882 10.4438 30.7057 10.4568 30.717L10.5358 30.7572C10.6568 30.8108 10.8058 30.8592 10.9628 30.8984C11.2768 30.9777 11.6208 31.0272 11.9668 31.0632C12.6628 31.1343 13.3838 31.1426 14.1068 31.1137C15.5508 31.0447 17.0328 30.8273 18.3868 30.3224C18.4728 30.2926 18.5538 30.2555 18.6368 30.2225L18.7548 30.173L18.8838 30.1133C19.0528 30.0329 19.2338 29.9567 19.3938 29.8722C19.7178 29.7115 20.0428 29.5353 20.3628 29.3509C20.9998 28.9789 21.6128 28.5647 22.1818 28.1104C22.7438 27.657 23.2948 27.1584 23.6718 26.6195C23.7188 26.5526 23.7508 26.4876 23.7918 26.4227C23.8118 26.3898 23.8168 26.363 23.8308 26.3331C23.8388 26.3084 23.8648 26.2682 23.8598 26.2558C23.8608 26.2383 23.8658 26.2229 23.8728 26.2064C23.8738 26.195 23.8758 26.2909 23.8738 26.2414L23.8718 26.2239L23.8668 26.1899L23.8578 26.1209C23.8488 26.0199 23.8248 25.9581 23.8068 25.8829C23.7758 25.7489 23.7248 25.5676 23.6758 25.3945C23.6288 25.2224 23.5748 25.0493 23.5228 24.8763C23.1018 23.4967 22.6488 22.1655 22.2218 20.9065C21.7898 19.6464 21.3808 18.4564 21.0038 17.3571C20.8138 16.808 20.6308 16.2825 20.4578 15.7818C20.3698 15.5324 20.2848 15.2883 20.2018 15.0513C20.1138 14.8071 20.0548 14.5928 19.9548 14.4383C19.8558 14.2734 19.7288 14.1343 19.5868 14.0282C19.5148 13.9756 19.4408 13.9303 19.3638 13.8932C19.2858 13.8541 19.2158 13.8314 19.1138 13.7964C18.7668 13.6872 18.4198 13.6274 18.1108 13.6016C17.4858 13.5522 16.9868 13.6192 16.6518 13.6758C16.4848 13.7078 16.3558 13.7335 16.2708 13.7552C16.1838 13.7758 16.1398 13.7861 16.1398 13.7861C16.0958 13.6161 16.0528 13.445 16.0088 13.274C16.0548 13.2616 16.1008 13.2493 16.1468 13.2369C16.2378 13.2112 16.3748 13.1782 16.5548 13.138C16.9138 13.0659 17.4518 12.9742 18.1488 13.0072C18.4978 13.0247 18.8788 13.0793 19.2958 13.2029C19.3828 13.2307 19.5078 13.2689 19.6168 13.3214C19.7288 13.3729 19.8378 13.4358 19.9428 13.51C20.1518 13.6593 20.3388 13.8561 20.4868 14.0921C20.5238 14.1508 20.5568 14.2116 20.5898 14.2755L20.6378 14.3795L20.6718 14.465C20.7158 14.5815 20.7598 14.7 20.8048 14.8205C20.8918 15.0564 20.9818 15.2986 21.0738 15.5469C21.2578 16.0445 21.4498 16.5669 21.6508 17.1129C22.0518 18.205 22.4838 19.3889 22.9248 20.6479C23.3658 21.908 23.8318 23.2329 24.2738 24.631C24.3288 24.8062 24.3858 24.9803 24.4368 25.1616C24.4888 25.3409 24.5428 25.513 24.5948 25.7386C24.6188 25.8437 24.6488 25.9591 24.6568 26.0446L24.6668 26.1136L24.6718 26.1476L24.6738 26.1652C24.6728 26.1281 24.6788 26.2352 24.6768 26.2352C24.6678 26.3104 24.6558 26.3856 24.6408 26.4609C24.6278 26.5423 24.5998 26.5824 24.5788 26.6453C24.5548 26.6999 24.5338 26.7638 24.5068 26.8112C24.4518 26.9049 24.3998 27.0069 24.3408 27.0924C23.8678 27.7776 23.2938 28.2886 22.6968 28.7863C22.0958 29.2767 21.4568 29.7187 20.7898 30.1174C20.4558 30.3142 20.1158 30.5038 19.7628 30.6841C19.5868 30.7778 19.4188 30.85 19.2458 30.9344L19.1178 30.9952L18.9738 31.0581C18.8818 31.0962 18.7908 31.1384 18.6968 31.1724C17.2128 31.7422 15.6698 31.9781 14.1508 32.0688C13.3898 32.108 12.6338 32.108 11.8778 32.04C11.4998 32.0039 11.1238 31.9555 10.7388 31.8638C10.5458 31.8164 10.3508 31.7597 10.1438 31.669L9.98283 31.5887C9.92183 31.5485 9.87483 31.5217 9.80383 31.4661C9.76083 31.429 9.71883 31.3878 9.68083 31.3455C9.66383 31.326 9.63983 31.2971 9.63083 31.2847L9.61183 31.2569L9.59283 31.2281L9.58383 31.2147C9.51283 31.089 9.55983 31.1683 9.54183 31.1353L9.51083 31.0601C9.35383 30.6624 9.25783 30.343 9.14083 29.9927C9.03183 29.6507 8.92483 29.3117 8.81783 28.9769C8.61183 28.3072 8.40883 27.6509 8.21283 27.0131C7.82783 25.7345 7.46383 24.527 7.12883 23.4112C6.79583 22.2953 6.48983 21.2733 6.23783 20.3615C6.17683 20.1245 6.10483 19.9473 6.04983 19.6279C6.00583 19.3404 6.01883 19.054 6.07783 18.7903C6.10683 18.6573 6.14683 18.5306 6.19983 18.4121C6.22583 18.3513 6.25083 18.2998 6.28483 18.236L6.33483 18.1484L6.37283 18.0886C6.50483 17.8877 6.62183 17.7445 6.75183 17.5982C7.31183 16.9893 8.36083 16.332 8.98483 17.1871Z" fill="#181716"/>
</svg>
