<svg width="30" height="26" viewBox="0 0 30 26" fill="none" xmlns="http://www.w3.org/2000/svg">
<path fill-rule="evenodd" clip-rule="evenodd" d="M14.2536 10.0518C14.8266 8.68684 15.5746 7.41184 16.5476 6.26884C17.0496 5.71584 17.5956 5.17884 18.2646 4.78184C18.9176 4.37684 19.6756 4.06184 20.4806 4.02184C21.2726 3.92784 22.1106 4.14684 22.7726 4.40384C23.5426 4.73484 24.1856 5.18784 24.7246 5.76984C25.2466 6.35484 25.6856 7.02084 25.9566 7.74984C26.2646 8.46684 26.4066 9.23584 26.4866 10.0028C26.5286 10.7718 26.5106 11.5528 26.3246 12.3058C26.1736 13.0648 25.8846 13.7928 25.5186 14.4768C25.1366 15.1408 24.6326 15.7968 24.1056 16.2968C23.6056 16.8108 23.0206 17.3988 22.4676 17.8638C20.2016 19.7398 17.7396 20.7358 15.1546 22.7358H15.1526L14.7046 22.8938L14.4656 22.3918C14.2086 21.8908 13.8666 21.3448 13.5076 20.8668C13.1476 20.3818 12.7476 19.9168 12.3216 19.4908C11.8996 19.0618 11.4506 18.6548 10.9706 18.2958C10.4976 17.9248 9.98057 17.6168 9.45657 17.3298C8.90157 17.0318 8.32757 16.7228 7.77857 16.3448C7.22957 15.9878 6.71357 15.5688 6.23057 15.1098C5.27457 14.1908 4.47257 13.0058 4.16857 11.6528C4.00957 10.9828 3.96757 10.2898 4.02357 9.61484C4.03657 9.44684 4.06557 9.27984 4.08557 9.11284C4.10157 9.01684 4.09857 8.97484 4.12957 8.83384L4.18557 8.60484C4.24157 8.31184 4.36657 7.97084 4.49757 7.63384C4.78157 7.00384 5.11757 6.41084 5.58257 5.90584C6.02457 5.38684 6.56557 4.94484 7.17957 4.62884C7.77757 4.27684 8.47657 4.13884 9.15757 4.05884C9.84557 4.04884 10.5376 4.12284 11.1666 4.36684C11.4846 4.47984 11.7966 4.60184 12.0776 4.77984C12.3686 4.93984 12.6586 5.09984 12.9096 5.30984C13.4536 5.68184 13.9026 6.14884 14.3686 6.59484L13.9656 6.99384C13.4976 6.59684 13.0486 6.17684 12.5296 5.86584C12.2866 5.68284 12.0156 5.55584 11.7476 5.42784C11.4866 5.27884 11.2046 5.19184 10.9246 5.10684C10.3696 4.91284 9.78857 4.88284 9.22257 4.90584C8.66657 5.00184 8.10457 5.12284 7.62257 5.43784C7.13057 5.71884 6.68457 6.09184 6.32257 6.53984C5.93857 6.96784 5.66357 7.49484 5.44157 8.00984C5.35157 8.26384 5.25357 8.50984 5.19557 8.83884L5.14457 9.06884L5.12357 9.25684L5.07857 9.69184C5.04357 10.2718 5.09857 10.8458 5.22457 11.4008C5.47557 12.5158 6.13857 13.5088 6.98657 14.3248C7.85457 15.1538 8.84757 15.7798 9.96257 16.3578C10.5426 16.6728 11.1116 17.0108 11.6306 17.4168C12.1556 17.8118 12.6536 18.2438 13.1036 18.7208C13.5556 19.1948 13.9746 19.6988 14.3526 20.2328C14.7336 20.7708 15.0706 21.3248 15.3736 21.9518L14.6856 21.7358H14.6876C15.9226 20.7358 17.1446 20.2698 18.3256 19.4758C19.5146 18.6908 20.6766 17.8548 21.7606 16.9478C22.3086 16.4828 22.8116 16.0428 23.3176 15.5238C23.8356 15.0278 24.2056 14.5208 24.5496 13.9408C24.8596 13.3548 25.1106 12.7298 25.2386 12.0728C25.4036 11.4228 25.4076 10.7458 25.3956 10.0788C25.3396 9.41584 25.2346 8.74584 24.9836 8.13084C24.7676 7.49984 24.4076 6.93684 23.9876 6.43784C23.5596 5.94684 23.0036 5.55684 22.4586 5.29684C21.7926 5.02584 21.1936 4.86084 20.5436 4.91684C19.9026 4.92884 19.2766 5.17084 18.7046 5.50584C18.1186 5.82884 17.6176 6.31184 17.1336 6.80084C16.1896 7.81184 15.4036 9.02084 14.8066 10.2868L14.2536 10.0518Z" fill="#181716"/>
</svg>
