<svg width="139" height="52" viewBox="0 0 139 52" fill="none" xmlns="http://www.w3.org/2000/svg">
<g id="Group 9">
<path id="Combined Shape" fill-rule="evenodd" clip-rule="evenodd" d="M27.7002 17.5549C32.8603 15.0847 37.5465 12.1054 40.2849 6.8498C34.891 8.9993 30.9352 12.8695 27.7002 17.5549ZM37.2846 24.4402C37.2157 24.3586 37.1469 24.2768 37.078 24.195C37.0092 24.1132 36.9403 24.0314 36.8714 23.9498C36.2613 24.3356 35.6316 24.6991 35.0018 25.0627C33.6051 25.869 32.2083 26.6754 31.0252 27.7246C27.8515 30.5387 24.8356 33.5554 21.977 36.6932C20.922 37.8513 19.7694 39.7266 21.2698 41.2175C22.6184 42.5564 24.3586 41.5412 25.6137 40.6175C27.6876 39.0907 29.7917 37.5074 31.5057 35.6049C34.3763 32.42 36.5326 28.7559 37.2846 24.4402ZM28.9713 12.9857C29.6332 12.44 30.2753 11.8988 30.9075 11.366C32.3763 10.128 33.7915 8.93533 35.2755 7.83617C36.5402 6.8998 37.9662 6.10081 39.4364 5.56041C40.218 5.27303 41.4606 5.36041 42.1196 5.82152C43.3088 6.65283 42.6192 7.98263 41.9275 8.70081C40.1666 10.5298 38.2961 12.2526 36.4264 13.9746L36.4263 13.9747C35.9681 14.3967 35.5099 14.8187 35.0534 15.2422C34.7433 15.5299 34.3914 15.7713 33.9566 16.0696C33.7295 16.2254 33.4798 16.3968 33.2016 16.5983C35.9194 17.2554 38.1461 18.0927 38.9112 20.8412C38.9604 21.02 40.0471 21.0735 40.5784 20.9235C42.0039 20.5218 43.421 20.0907 44.8382 19.6595C46.3823 19.1897 47.9265 18.7198 49.4813 18.2882C51.7241 17.6655 52.7043 18.4074 53.1074 20.623C52.6741 20.681 52.2032 20.6931 51.7322 20.7052C50.6879 20.732 49.6436 20.7589 49.0103 21.2852C47.611 22.4485 46.5311 24.0181 45.4661 25.566C45.2546 25.8735 45.0436 26.1802 44.8308 26.4826C44.6295 26.7687 44.6683 27.2252 44.7071 27.6818C44.725 27.892 44.7429 28.1022 44.7373 28.2958C44.9286 28.2298 45.1402 28.1816 45.3517 28.1335C45.8123 28.0286 46.2728 27.9238 46.5242 27.6352C47.618 26.3783 48.6405 25.0586 49.713 23.6745C50.1187 23.1509 50.5315 22.6182 50.9581 22.0761C53.1375 23.1458 55.1531 22.3463 56.7129 20.016L56.737 19.9799C57.0105 19.5705 57.3914 19.0002 57.7458 18.9811C58.2795 18.9525 58.8221 19.0914 59.3648 19.2303C59.5881 19.2875 59.8115 19.3447 60.0343 19.3902C59.9659 19.561 59.9111 19.7452 59.8563 19.9293C59.7375 20.3283 59.6187 20.7272 59.3618 20.9902C59.1845 21.1718 59.0058 21.3523 58.8269 21.5329L58.8268 21.533C57.1871 23.1887 55.5344 24.8574 54.8184 27.5841C55.0733 27.4748 55.3088 27.3924 55.5221 27.3177C55.9265 27.1761 56.2514 27.0623 56.4791 26.8458C58.7124 24.7261 60.9024 22.5594 63.0889 20.3907C63.2287 20.2523 63.3467 20.0586 63.4613 19.8704C63.636 19.5837 63.8029 19.3099 64.0269 19.2644C64.7285 19.122 65.6584 19.0675 66.2043 19.4235C67.0792 19.9945 66.5921 20.3949 66.1085 20.7923C65.9881 20.8913 65.8679 20.99 65.769 21.0912C64.0098 22.8932 62.5893 24.8993 62.2585 27.5811C67.3589 24.9579 71.5771 21.5225 73.361 15.5579L57.1356 14.5827L54.4198 14.4195C54.4263 14.2301 54.4329 14.0412 54.4389 13.8523C54.7919 13.8523 55.1449 13.8529 55.4979 13.8535C56.263 13.8548 57.0281 13.8562 57.793 13.8513C59.2487 13.8425 60.7044 13.8303 62.1601 13.818C65.8912 13.7866 69.6222 13.7552 73.3529 13.7821C74.601 13.7912 75.0896 13.1235 75.636 12.2124C77.5334 9.04627 79.453 5.89122 81.4435 2.78313C82.8102 0.649801 83.0525 0.661923 85.1877 2.12808L82.3482 6.04664L82.3205 6.08496C80.6669 8.36693 78.9596 10.7229 77.1107 13.2751C79.7551 13.1109 81.725 13.0685 82.1186 15.9533C81.6848 15.9097 81.2573 15.8578 80.8344 15.8064C79.8379 15.6855 78.8663 15.5675 77.8948 15.5675C77.162 15.5675 76.031 15.7594 75.7596 16.2468C74.2584 18.9439 72.8557 21.6964 71.3471 24.6567C70.8624 25.6077 70.3668 26.5801 69.8535 27.5791C70.232 27.5321 70.5206 27.5144 70.7426 27.5007C71.0887 27.4795 71.2728 27.4681 71.3831 27.3715C72.1003 26.7434 72.8294 26.1259 73.5586 25.5082L73.5592 25.5077L73.5593 25.5076C75.5806 23.7955 77.6032 22.0824 79.3771 20.1407C80.7765 18.6089 81.9205 18.2518 83.917 19.1685C81.1726 21.4958 79.0419 24.123 78.1733 27.7412C81.2103 26.9235 83.9145 25.5892 86.1774 23.2912C87.6939 21.7513 89.2702 20.2049 91.0521 19.0119C92.8732 17.7927 93.7081 18.2559 94.9953 20.6745C91.0224 20.9347 88.6756 23.2917 86.9148 26.3771C86.9927 26.4783 87.0704 26.5796 87.148 26.6809C87.2257 26.7821 87.3034 26.8834 87.3813 26.9846C87.6201 26.7913 87.8583 26.5973 88.0965 26.4032L88.0989 26.4013C88.6616 25.9429 89.2242 25.4846 89.795 25.0362C90.0338 24.8485 90.2674 24.6463 90.5012 24.4439C91.1037 23.9225 91.708 23.3995 92.4072 23.119C92.9128 22.916 93.5346 23.0043 94.1562 23.0925C94.4332 23.1318 94.7101 23.1711 94.9767 23.1847C94.9593 23.4253 94.9649 23.6781 94.9704 23.9309C94.9825 24.4794 94.9946 25.0277 94.7717 25.4508C93.0898 28.6412 91.3235 31.7887 89.5044 34.9028C86.5067 40.0352 83.7492 45.2756 81.8949 50.969C81.9018 46.252 83.876 42.137 85.835 38.0535L85.9548 37.8038C87.3254 34.9459 88.8023 32.1397 90.2793 29.3333C90.9283 28.1002 91.5772 26.8671 92.2172 25.6296L92.0159 25.4585C91.8803 25.3433 91.7447 25.2281 91.6095 25.1129C91.3574 25.2895 91.1023 25.4622 90.8473 25.6349L90.8472 25.6349C90.2631 26.0304 89.679 26.4258 89.1315 26.867C88.8021 27.1324 88.5008 27.4345 88.1997 27.7364C87.8466 28.0905 87.4938 28.4443 87.0963 28.7382C86.5246 29.1614 85.9005 29.5133 85.2764 29.8653L85.2763 29.8654C85.006 30.0178 84.7356 30.1703 84.4694 30.3286C84.2948 29.7207 84.1198 29.1132 83.9319 28.461L83.9271 28.4444L83.5536 27.1478C83.2183 27.3563 82.8758 27.5864 82.5241 27.8227L82.5239 27.8228C81.6764 28.3922 80.7763 28.9969 79.7984 29.4195C79.0683 29.735 78.2438 29.8289 77.4194 29.9227L77.4193 29.9227C77.0534 29.9643 76.6876 30.006 76.3301 30.067C76.3238 29.73 76.3138 29.393 76.3038 29.0558V29.0557V29.0555C76.2789 28.2143 76.2539 27.3729 76.2859 26.5336C76.2927 26.3541 76.3341 26.1758 76.3787 25.9838C76.4525 25.666 76.5352 25.3103 76.4844 24.8478C76.1855 25.116 75.8868 25.3843 75.588 25.6525C74.6524 26.4928 73.7169 27.3329 72.7774 28.169C72.7337 28.2079 72.6902 28.2478 72.6464 28.2877C72.4399 28.4766 72.2293 28.6691 71.9862 28.7867C71.6745 28.9376 71.3268 29.1446 70.9758 29.3536L70.9757 29.3536C70.1225 29.8616 69.2499 30.3812 68.8261 30.1346C67.5124 29.3719 67.9874 28.0115 68.4204 26.7711C68.4788 26.6038 68.5365 26.4387 68.5889 26.2776C68.6523 26.0831 68.6745 25.8749 68.702 25.6159C68.7164 25.4808 68.7323 25.3319 68.7562 25.1639C68.2026 25.5918 67.6693 26.0162 67.1464 26.4323L67.1464 26.4323C65.9004 27.4238 64.7139 28.3679 63.4538 29.1993C62.8899 29.571 62.1875 29.731 61.4851 29.891C61.1664 29.9636 60.8478 30.0362 60.542 30.1286C60.4928 29.8524 60.4425 29.5765 60.3922 29.3006C60.2688 28.6238 60.1455 27.947 60.0384 27.2675C60.0081 27.0724 60.0141 26.8715 60.0221 26.6051C60.0264 26.4605 60.0313 26.2966 60.0313 26.1038C59.5684 26.4873 59.1257 26.8653 58.6937 27.2342C57.6497 28.1256 56.6678 28.9639 55.6141 29.6983C55.0235 30.1099 53.7472 30.4417 53.4336 30.1357C52.9078 29.6235 52.6057 28.516 52.745 27.7584C52.932 26.7382 53.3031 25.7522 53.6956 24.7094L53.6956 24.7093C53.8633 24.2638 54.0348 23.808 54.1976 23.3347C52.3258 23.1245 51.0033 23.2887 50.1724 25.4402C49.3587 27.5468 47.8356 29.4109 45.5275 30.1104C44.7042 30.3604 43.4511 30.2165 42.8117 29.715C42.2945 29.3094 42.017 27.9261 42.3035 27.274C43.0695 25.5309 43.9805 23.8517 44.9359 22.0906L44.9362 22.0901C45.3035 21.4129 45.6775 20.7236 46.0522 20.0139C45.4979 20.2341 44.9452 20.4442 44.3966 20.6527L44.3965 20.6527C42.9868 21.1886 41.6037 21.7143 40.2874 22.3745C39.7335 22.6528 39.3279 23.6124 39.2062 24.3205C37.8013 32.4963 33.6821 38.8468 26.5818 43.0937C25.1286 43.9629 23.3191 44.4766 21.6262 44.6352C19.0074 44.8811 17.6322 42.9513 18.2906 40.4038C19.2542 36.674 21.4648 33.6574 24.3179 31.3064C26.6561 29.38 29.1602 27.6583 31.6648 25.9362C32.8801 25.1007 34.0955 24.265 35.2921 23.4059C35.5037 23.254 35.7712 23.1454 36.0404 23.0361C36.7744 22.7382 37.5204 22.4354 37.175 21.2362C36.7613 19.7988 35.7616 18.8382 34.2738 18.8912C32.5411 18.9533 30.7633 19.1341 29.1081 19.619C26.8356 20.2841 24.9854 21.5473 23.7071 23.7816C21.3196 27.9543 18.2786 31.6564 14.5897 34.767C13.7663 35.4614 12.853 36.1382 11.8648 36.5155C11.208 36.7657 10.349 36.4812 9.62492 36.2413L9.62487 36.2413L9.60944 36.2362C17.984 30.3079 23.2462 22.366 26.4908 12.9867C27.1055 11.2099 27.3161 9.17303 27.2025 7.28718C26.9985 3.90788 24.9763 2.38313 21.6056 2.70839C17.8865 3.06748 14.8254 4.96344 11.8824 7.08061C8.43778 9.55889 5.55611 12.5776 3.43897 16.2821C1.3922 19.8629 0.701059 23.6291 2.19191 27.7109C0.512567 26.4614 -0.0312958 25.2756 0.00137617 22.8104C0.0415878 19.7937 0.956905 16.9942 2.49349 14.4503C5.79286 8.98617 10.2317 4.74576 16.2569 2.46142C17.9493 1.82 19.8212 1.43162 21.6267 1.36344C26.156 1.19324 29.2433 4.34071 29.2181 8.87455C29.2131 9.76125 29.1447 10.6473 29.0721 11.589V11.589C29.0374 12.0397 29.0016 12.5032 28.9713 12.9857ZM115.581 24.8289C115.624 24.8877 115.667 24.9464 115.711 25.0052L115.819 25.1518L116.865 24.4008C118.047 23.5531 119.228 22.7056 120.41 21.8583C120.326 21.7444 120.243 21.631 120.159 21.5175L120.158 21.516L120.034 21.3468C117.938 21.6773 116.515 22.9208 115.454 24.6558C115.496 24.7136 115.538 24.7713 115.581 24.8289ZM111.869 27.3543C111.379 27.7342 110.919 28.1127 110.474 28.4792C109.464 29.3106 108.528 30.0804 107.487 30.6658C106.58 31.1763 105.172 31.4848 104.294 31.1353C103.9 30.9795 103.774 30.1587 103.649 29.3448L103.649 29.3445C103.595 28.9937 103.542 28.6442 103.467 28.3498C103.427 28.1912 103.409 28.027 103.39 27.8527C103.382 27.7699 103.373 27.6848 103.361 27.5968C102.897 27.9236 102.442 28.2565 101.99 28.5876L101.99 28.5879C100.876 29.4033 99.7771 30.2074 98.6021 30.8798C97.9157 31.2723 96.6317 31.4738 96.1178 31.0973C95.5994 30.7183 95.3132 29.3493 95.5959 28.6993C96.7535 26.0373 98.0316 23.4038 99.5352 20.9193C100.466 19.3825 101.59 20.1431 102.778 20.9471C102.874 21.0118 102.97 21.0768 103.066 21.1408C100.481 23.2873 98.9824 25.8798 97.9967 28.8748C101.215 27.7023 103.766 25.7208 105.867 23.1423C106.238 22.6869 106.577 22.2063 106.917 21.7255L106.917 21.7254C107.107 21.4556 107.298 21.1858 107.494 20.9203C108.26 19.8828 109.151 19.8643 110.064 20.6933C110.951 21.5005 110.395 21.8745 109.854 22.2375C109.703 22.3391 109.553 22.4398 109.437 22.5488C107.376 24.4763 105.951 26.7373 105.256 30.1363C108.795 28.6563 111.324 26.7963 113.009 23.9748C114.319 21.7798 115.781 19.7933 118.114 18.5973C119.963 17.6498 121.72 18.0968 122.222 19.9378C122.398 20.5836 122.111 21.3529 121.828 22.1097C121.702 22.4476 121.576 22.783 121.494 23.1038C122.457 22.8711 123.443 22.6317 124.447 22.3882C127.16 21.7299 129.997 21.0413 132.839 20.3708C132.951 20.3445 133.063 20.3179 133.175 20.2912C134.293 20.0261 135.422 19.7582 136.558 19.6873C137.311 19.6408 138.092 20.0293 138.812 20.5298C130.776 21.1033 123.239 23.2163 115.932 26.2208C113.676 27.1483 113.413 29.3413 115.35 30.8338C115.922 31.2753 116.679 31.5833 117.395 31.7133C118.206 31.8603 119.078 31.8243 119.904 31.7183C124.217 31.1638 128.829 27.9433 131.162 24.2833C131.104 24.5338 131.061 24.7919 131.019 25.05C130.927 25.6049 130.835 26.1595 130.59 26.6373C128.245 31.2158 121.241 34.4268 116.168 33.3218C113.442 32.7273 112.392 31.3303 111.869 27.3543ZM85.9496 12.5212C85.6347 13.2155 85.3198 13.9098 85 14.6012C85.1817 14.7237 85.3634 14.8463 85.5457 14.9689C86.0238 14.4534 86.5008 13.9365 86.9779 13.4196C88.1576 12.1412 89.3375 10.8628 90.5342 9.60422C91.2837 8.81648 91.0662 8.18521 90.326 7.68568C90.2334 7.62311 90.1376 7.55114 90.0394 7.47747C89.4592 7.04206 88.7997 6.54707 88.2755 7.58136C87.4556 9.2007 86.7026 10.8609 85.9496 12.5212Z" fill="black"/>
</g>
</svg>
