<svg width="30" height="26" viewBox="0 0 30 26" fill="none" xmlns="http://www.w3.org/2000/svg">
<path fill-rule="evenodd" clip-rule="evenodd" d="M13.7704 8.81724C13.9714 8.80924 14.2524 8.78624 14.5844 8.73024C14.9184 8.68124 15.3004 8.58424 15.7014 8.45924C16.0994 8.32024 16.5194 8.15224 16.9074 7.92124C17.3024 7.70524 17.6634 7.42724 17.9734 7.14124C18.0124 7.11024 18.0434 7.07424 18.0784 7.04024C18.1264 7.12024 18.1814 7.20724 18.2444 7.30124C18.4834 7.66624 18.8394 8.12824 19.2614 8.53024C19.6794 8.93724 20.1604 9.27724 20.5474 9.48524C20.7394 9.59324 20.9064 9.66824 21.0264 9.71524C21.1444 9.76524 21.2114 9.79424 21.2114 9.79424L21.4294 9.25124C21.4294 9.25124 21.3714 9.22324 21.2694 9.17324C21.1664 9.12724 21.0214 9.05324 20.8574 8.94924C20.5244 8.74824 20.1124 8.42524 19.7564 8.04224C19.3964 7.66324 19.0954 7.22924 18.8974 6.89224C18.7634 6.66724 18.6824 6.50124 18.6404 6.40924C18.6734 6.36324 18.7074 6.31724 18.7374 6.27224C18.8334 6.13124 18.9364 6.00124 18.9974 5.88824C19.0584 5.77424 19.1124 5.67624 19.1564 5.59424C19.2444 5.43124 19.2954 5.33824 19.2954 5.33824L18.7874 5.04724C18.7874 5.04724 18.7334 5.13724 18.6374 5.29624C18.5894 5.37524 18.5304 5.47124 18.4634 5.58124C18.3974 5.69224 18.3084 5.78424 18.2204 5.90224C18.1334 6.01724 18.0364 6.14024 17.9084 6.25824C17.7864 6.37724 17.6694 6.51424 17.5174 6.62324C17.2334 6.86024 16.9064 7.08924 16.5494 7.26124C16.2004 7.44724 15.8214 7.57624 15.4654 7.68224C15.1044 7.77524 14.7624 7.84524 14.4654 7.87324C13.8714 7.94424 13.4784 7.90324 13.4994 7.90624L13.4404 8.82124C13.4404 8.82124 13.4724 8.82224 13.5344 8.82324C13.5904 8.82324 13.6714 8.82224 13.7704 8.81724Z" fill="black"/>
<mask id="mask0" mask-type="alpha" maskUnits="userSpaceOnUse" x="5" y="1" width="20" height="25">
<path fill-rule="evenodd" clip-rule="evenodd" d="M24.059 1.00012V25.9486H5V1.00012L24.059 1.00012V1.00012Z" fill="white"/>
</mask>
<g mask="url(#mask0)">
<path fill-rule="evenodd" clip-rule="evenodd" d="M11.6706 17.6648C9.55357 15.6608 8.91557 12.0238 8.75557 10.7818C8.87557 10.7278 8.99757 10.6788 9.11757 10.6228C9.39757 10.4898 9.66657 10.3518 9.94557 10.1908C10.0906 10.1088 10.1956 10.0428 10.3386 9.94575C10.4656 9.85575 10.5966 9.77375 10.7196 9.67875C11.2186 9.31375 11.6896 8.91275 12.1226 8.47575C12.5466 8.02675 12.9476 7.57175 13.2866 7.03475L12.8066 6.69975C12.4456 7.12775 12.0306 7.54675 11.5966 7.92075C11.1626 8.29975 10.7076 8.65275 10.2266 8.96275C10.1086 9.04375 9.98257 9.11275 9.86157 9.18875L9.48957 9.40075C9.25057 9.53375 8.98657 9.66275 8.72657 9.77975C8.42857 9.91475 8.11957 10.0388 7.81057 10.1548C7.86457 9.60375 7.93157 9.05075 8.02857 8.50875C8.17157 7.72875 8.35457 6.94975 8.64857 6.25075C8.95357 5.52175 9.33557 4.86375 9.82957 4.26275C10.3166 3.66675 10.8926 3.14775 11.5416 2.74875C12.1896 2.34875 12.9156 2.08775 13.6656 1.96675C14.4116 1.84575 15.2056 1.86475 15.9786 1.96775C17.5206 2.16775 19.0036 2.81675 20.0446 3.94375C21.1006 5.05875 21.6756 6.57575 21.9046 8.13275C22.0326 8.92875 22.0446 9.66775 21.9336 10.4638C21.8256 11.2558 21.6966 12.0998 21.6766 12.9338C21.6336 13.7698 21.6966 14.6338 21.8376 15.4498C21.9046 15.8618 21.9866 16.2678 22.0676 16.6678C22.1056 16.8648 22.1526 17.0748 22.1756 17.2508C22.1966 17.4138 22.1906 17.5698 22.1496 17.7008C22.0706 17.9518 21.8426 18.0808 21.4986 18.0848C21.1696 18.0898 20.7786 17.9648 20.3686 17.8768C19.8466 17.7498 19.2746 17.6828 18.7096 17.7308C20.2746 15.7748 20.9136 12.7778 21.1556 11.1538L20.5766 11.0678C20.2216 13.4618 18.9726 19.0278 15.0646 19.0278C13.6416 19.0278 12.5336 18.4828 11.6706 17.6658V17.6648ZM9.88657 17.8918C9.61857 17.9258 9.32857 17.9628 9.02257 18.0018C8.75557 18.0348 8.45657 18.0338 8.25957 17.9568C8.06957 17.8838 7.98457 17.7608 7.94857 17.4708C7.91957 17.1938 7.96757 16.8528 8.03057 16.5128C8.09357 16.1698 8.17757 15.8188 8.23557 15.4488C8.29357 15.0718 8.30657 14.7068 8.30657 14.3568C8.30757 13.6508 8.19157 13.0018 8.12557 12.4848C8.05457 11.8978 7.99757 11.4238 7.96057 11.1098C8.03857 11.0798 8.12057 11.0518 8.19857 11.0208C8.39157 12.3848 9.03957 15.6668 10.9466 17.7568C10.6596 17.7938 10.3006 17.8388 9.88657 17.8918ZM23.8686 24.8658C23.7746 24.6108 23.7076 24.3508 23.5896 24.1048C23.4786 23.8558 23.3656 23.6108 23.2156 23.3798C23.0866 23.1418 22.9086 22.9288 22.7456 22.7128C22.5626 22.5098 22.3796 22.3098 22.1686 22.1368C21.9626 21.9598 21.7426 21.8008 21.5096 21.6658C21.2796 21.5248 21.0336 21.4148 20.7846 21.3158C20.6566 21.2728 20.5326 21.2268 20.4006 21.1938C20.2686 21.1568 20.1446 21.1318 19.9896 21.1088L19.7796 21.0788L19.6786 21.2778L19.6766 21.2818C19.5916 21.4448 19.4436 21.6378 19.2886 21.7938C19.1356 21.9588 18.9556 22.1018 18.7726 22.2388C18.5836 22.3698 18.3856 22.4878 18.1776 22.5928C17.9666 22.6908 17.7566 22.7918 17.5316 22.8608C17.0916 23.0228 16.6236 23.1118 16.1556 23.1858C15.9196 23.2068 15.6936 23.2398 15.4506 23.2518C15.2096 23.2578 14.9466 23.2738 14.7256 23.2698C14.2456 23.2618 13.7676 23.2328 13.2976 23.1598C12.8286 23.0848 12.3646 22.9778 11.9226 22.8178C11.7036 22.7348 11.4826 22.6508 11.2776 22.5418C11.0676 22.4388 10.8676 22.3188 10.6766 22.1888C10.5376 22.0918 10.4056 21.9868 10.2796 21.8758C10.3906 21.8218 10.5376 21.7428 10.7106 21.6368C11.0746 21.4188 11.5336 21.0858 11.9526 20.7088C12.3746 20.3348 12.7556 19.9198 13.0246 19.5918C13.1126 19.4878 13.1846 19.3958 13.2486 19.3118C13.7956 19.5018 14.3966 19.6128 15.0646 19.6128C15.6116 19.6128 16.1116 19.5198 16.5676 19.3518C16.7036 19.5288 16.9136 19.7938 17.1776 20.0958L17.3506 20.2958C17.6146 20.6028 17.8226 20.8458 18.2626 21.1838L18.6196 20.7208C18.2276 20.4188 18.0546 20.2188 17.7936 19.9148L17.6176 19.7108C17.4136 19.4778 17.2416 19.2658 17.1146 19.1018C17.4376 18.9278 17.7366 18.7148 18.0126 18.4708C18.7206 18.2458 19.4726 18.2948 20.2256 18.4888C20.6116 18.5748 21.0066 18.7248 21.4996 18.7368C21.7406 18.7388 22.0046 18.6988 22.2536 18.5628C22.5036 18.4298 22.6996 18.1788 22.7896 17.9208C22.8776 17.6628 22.8856 17.4008 22.8596 17.1598C22.8326 16.9298 22.7896 16.7398 22.7536 16.5348C22.6786 16.1328 22.6046 15.7368 22.5466 15.3398C22.4246 14.5428 22.3716 13.7668 22.4346 12.9698C22.4796 12.1678 22.5956 11.3928 22.7176 10.5668C22.8456 9.74375 22.8376 8.83175 22.7076 8.01275C22.5866 7.17675 22.3786 6.34475 22.0466 5.55075C21.7136 4.75975 21.2576 4.00675 20.6616 3.36875C20.0706 2.72875 19.3516 2.20575 18.5686 1.83075C17.7856 1.45575 16.9466 1.22175 16.0996 1.10175C15.2556 0.984753 14.3976 0.954753 13.5266 1.08675C12.6636 1.22075 11.8196 1.51875 11.0726 1.97275C10.3246 2.42575 9.66757 3.01275 9.11657 3.67775C8.56457 4.33475 8.11557 5.10575 7.78557 5.88175C7.44157 6.69075 7.24757 7.51375 7.09057 8.33775C6.94057 9.16575 6.83057 9.98275 6.78157 10.8318L6.74057 11.5408L7.38157 11.3238C7.41057 11.6328 7.44957 12.0518 7.49657 12.5538C7.55357 13.1078 7.64457 13.7058 7.62657 14.3518C7.61757 14.6758 7.59757 15.0078 7.53857 15.3308C7.47757 15.6588 7.38557 16.0058 7.30857 16.3678C7.23357 16.7318 7.15757 17.1088 7.18557 17.5388C7.20257 17.7528 7.25257 17.9898 7.38657 18.2118C7.51957 18.4348 7.74357 18.6028 7.95557 18.6898C8.39057 18.8618 8.76857 18.8408 9.11057 18.8168C9.41857 18.7868 9.70957 18.7588 9.97757 18.7328C11.0516 18.6298 11.7676 18.5608 11.7676 18.5608L11.7626 18.5128C11.9566 18.6608 12.1626 18.7948 12.3776 18.9168C12.3506 18.9578 12.3266 18.9948 12.2956 19.0408C12.0776 19.3598 11.7626 19.7738 11.4076 20.1508C11.0556 20.5308 10.6646 20.8708 10.3526 21.0988C10.1986 21.2148 10.0646 21.3028 9.96757 21.3598C9.91657 21.3918 9.87957 21.4148 9.85357 21.4308C9.80757 21.3718 9.75857 21.3118 9.72557 21.2578L9.61657 20.8788L9.42057 20.7098H9.41457C9.25457 20.7098 9.13057 20.9678 8.99557 21.0088C8.86457 21.0488 8.73557 21.1948 8.60957 21.2468C8.35757 21.3498 8.11457 21.5258 7.88457 21.6698C7.65357 21.8128 7.42957 21.9958 7.22457 22.1738C7.11857 22.2598 7.01457 22.3608 6.92057 22.4588C6.82557 22.5548 6.72157 22.6518 6.63357 22.7548C6.45457 22.9588 6.27457 23.1678 6.12157 23.3918C5.95357 23.6068 5.82157 23.8438 5.67857 24.0748C5.53857 24.3078 5.42257 24.5668 5.29557 24.8148L4.99957 25.5168L6.23057 25.9488L6.43957 25.2228C6.52157 25.0128 6.58557 24.7978 6.68157 24.5848C6.78057 24.3738 6.86957 24.1538 6.99157 23.9548C7.09957 23.7458 7.23157 23.5548 7.36357 23.3618C7.42757 23.2638 7.50657 23.1788 7.57757 23.0858C7.64757 22.9918 7.72657 22.9068 7.80757 22.8228C7.96457 22.6498 8.13857 22.4938 8.32057 22.3478C8.50257 22.2018 8.69657 22.0698 8.89957 21.9568C9.00057 21.8998 9.10457 21.8478 9.20957 21.8018C9.25757 21.7798 9.30957 21.7598 9.35857 21.7408C9.47757 21.8988 9.59957 22.0398 9.73557 22.1738C9.92357 22.3608 10.1306 22.5208 10.3446 22.6698C10.5596 22.8168 10.7826 22.9508 11.0146 23.0638C11.2436 23.1848 11.4846 23.2778 11.7246 23.3678C12.2076 23.5428 12.7066 23.6578 13.2086 23.7378C13.7106 23.8158 14.2166 23.8468 14.7206 23.8548C14.9906 23.8578 15.2186 23.8418 15.4706 23.8368C15.7186 23.8248 15.9796 23.7888 16.2336 23.7658C16.7366 23.6858 17.2396 23.5908 17.7246 23.4128C17.9696 23.3358 18.2056 23.2248 18.4396 23.1158C18.6726 22.9988 18.8966 22.8648 19.1116 22.7158C19.3226 22.5588 19.5286 22.3938 19.7116 22.1988C19.8446 22.0588 19.9616 21.9088 20.0726 21.7408C20.1176 21.7558 20.1636 21.7718 20.2076 21.7908C20.3136 21.8298 20.4156 21.8828 20.5186 21.9298C20.7186 22.0388 20.9146 22.1538 21.0926 22.2938C21.2746 22.4288 21.4416 22.5818 21.5936 22.7458C21.7496 22.9068 21.8806 23.0898 22.0106 23.2698C22.1216 23.4648 22.2476 23.6478 22.3296 23.8578C22.4296 24.0568 22.4986 24.2718 22.5666 24.4848C22.6416 24.6948 22.6706 24.9258 22.7256 25.1418C22.7596 25.3658 22.7806 25.5938 22.8106 25.8178L24.0596 25.6478C23.9956 25.3858 23.9396 25.1238 23.8686 24.8658Z" fill="black"/>
</g>
</svg>
